<?xml version="1.0" standalone="no"?>
<!DOCTYPE svg PUBLIC "-//W3C//DTD SVG 20010904//EN"
 "http://www.w3.org/TR/2001/REC-SVG-20010904/DTD/svg10.dtd">
<svg version="1.0" xmlns="http://www.w3.org/2000/svg"
 width="300.000000pt" height="301.000000pt" viewBox="0 0 300.000000 301.000000"
 preserveAspectRatio="xMidYMid meet">
<metadata>
Created by potrace 1.10, written by Peter Selinger 2001-2011
</metadata>
<g transform="translate(0.000000,301.000000) scale(0.050000,-0.050000)"
fill="#000000" stroke="none">
<path d="M1680 5267 c-550 -105 -940 -600 -940 -1193 0 -829 479 -1565 2087
-3210 l220 -225 79 75 c319 309 1289 1374 1517 1666 803 1033 938 1957 372
2553 -519 546 -1319 437 -1835 -250 -55 -73 -100 -144 -100 -158 0 -56 -53
-20 -99 68 -229 430 -862 759 -1301 674z m365 -236 c220 -47 399 -154 605
-361 164 -165 370 -436 370 -487 0 -57 43 -35 82 41 128 252 472 611 685 716
758 373 1519 -312 1323 -1191 -41 -185 -175 -594 -216 -656 -15 -24 -34 -65
-41 -93 -7 -27 -41 -81 -75 -120 -34 -38 -76 -97 -93 -130 -17 -33 -43 -67
-58 -76 -15 -9 -27 -30 -27 -46 0 -17 -9 -25 -20 -18 -11 7 -20 4 -20 -6 0
-10 -17 -40 -38 -66 -94 -117 -135 -166 -172 -208 -22 -25 -43 -56 -46 -70 -7
-32 -46 -69 -90 -86 -21 -8 -30 -24 -22 -37 8 -14 5 -18 -8 -10 -13 8 -36 -16
-56 -58 -19 -40 -63 -92 -98 -115 -35 -22 -72 -60 -83 -83 -10 -22 -30 -39
-44 -36 -14 4 -21 -2 -15 -12 7 -10 -43 -75 -109 -144 -66 -69 -127 -135 -135
-147 -8 -12 -32 -32 -54 -44 -22 -12 -52 -46 -67 -76 -16 -34 -37 -51 -55 -44
-15 6 -28 2 -28 -9 0 -11 -36 -58 -79 -103 -44 -45 -75 -89 -70 -98 5 -8 -9
-21 -31 -28 -22 -7 -40 -22 -40 -33 0 -10 -9 -14 -20 -7 -11 7 -20 -1 -20 -18
0 -16 -31 -54 -69 -83 l-69 -52 -45 41 c-24 23 -56 42 -71 42 -14 0 -26 13
-26 29 0 16 -18 39 -40 51 -22 12 -40 31 -40 42 0 11 -47 63 -103 114 -57 52
-111 103 -120 114 -9 11 -52 63 -97 116 -44 53 -80 106 -80 119 0 12 -6 16
-13 9 -15 -15 -87 72 -87 105 0 13 -8 18 -18 12 -10 -6 -39 16 -64 48 -26 32
-54 54 -62 48 -9 -5 -16 0 -16 12 0 11 -1 28 -3 36 -4 23 -85 75 -105 69 -10
-4 -6 10 9 30 15 20 21 30 12 23 -14 -12 -54 24 -153 137 -16 19 -27 50 -24
69 3 18 -5 40 -18 48 -15 9 -19 7 -11 -7 8 -11 5 -27 -7 -34 -11 -7 -20 -2
-20 10 0 12 -9 17 -20 10 -12 -7 -19 -6 -17 4 6 29 -41 126 -63 126 -11 0 -20
14 -20 30 0 17 -11 30 -25 31 -32 1 -119 136 -104 161 11 17 -20 27 -61 19
-11 -3 -14 2 -6 10 15 15 -75 147 -119 175 -14 9 -25 30 -25 48 0 18 -21 60
-47 94 -121 158 -287 546 -344 803 -169 760 385 1442 1056 1300z"/>
</g>
</svg>
